<svg width="64" height="22" viewBox="0 0 64 22" fill="none" xmlns="http://www.w3.org/2000/svg">
<path d="M8.856 11.739C8.262 11.001 7.479 10.632 6.507 10.632C6.165 10.632 5.832 10.713 5.508 10.875C5.184 11.037 5.022 11.316 5.022 11.712C5.022 12.036 5.184 12.279 5.508 12.441C5.85 12.585 6.273 12.72 6.777 12.846C7.299 12.954 7.848 13.08 8.424 13.224C9.018 13.35 9.567 13.557 10.071 13.845C10.593 14.133 11.016 14.529 11.34 15.033C11.682 15.519 11.853 16.176 11.853 17.004C11.853 17.85 11.664 18.552 11.286 19.11C10.926 19.65 10.458 20.091 9.882 20.433C9.306 20.757 8.658 20.982 7.938 21.108C7.218 21.252 6.507 21.324 5.805 21.324C4.887 21.324 3.96 21.198 3.024 20.946C2.088 20.676 1.296 20.208 0.648 19.542L3.105 16.815C3.483 17.283 3.897 17.643 4.347 17.895C4.815 18.129 5.355 18.246 5.967 18.246C6.435 18.246 6.858 18.183 7.236 18.057C7.614 17.913 7.803 17.661 7.803 17.301C7.803 16.959 7.632 16.707 7.29 16.545C6.966 16.365 6.543 16.221 6.021 16.113C5.517 15.987 4.968 15.861 4.374 15.735C3.798 15.591 3.249 15.384 2.727 15.114C2.223 14.844 1.8 14.466 1.458 13.98C1.134 13.476 0.972 12.81 0.972 11.982C0.972 11.208 1.125 10.542 1.431 9.984C1.755 9.426 2.169 8.967 2.673 8.607C3.195 8.247 3.789 7.986 4.455 7.824C5.121 7.644 5.796 7.554 6.48 7.554C7.344 7.554 8.217 7.68 9.099 7.932C9.981 8.184 10.728 8.634 11.34 9.282L8.856 11.739ZM24.349 18.732C23.701 19.56 22.882 20.199 21.892 20.649C20.902 21.099 19.876 21.324 18.814 21.324C17.806 21.324 16.852 21.162 15.952 20.838C15.07 20.514 14.296 20.055 13.63 19.461C12.982 18.849 12.469 18.12 12.091 17.274C11.713 16.428 11.524 15.483 11.524 14.439C11.524 13.395 11.713 12.45 12.091 11.604C12.469 10.758 12.982 10.038 13.63 9.444C14.296 8.832 15.07 8.364 15.952 8.04C16.852 7.716 17.806 7.554 18.814 7.554C19.75 7.554 20.596 7.716 21.352 8.04C22.126 8.364 22.774 8.832 23.296 9.444C23.836 10.038 24.25 10.758 24.538 11.604C24.826 12.45 24.97 13.395 24.97 14.439V15.708H15.574C15.736 16.482 16.087 17.103 16.627 17.571C17.167 18.021 17.833 18.246 18.625 18.246C19.291 18.246 19.849 18.102 20.299 17.814C20.767 17.508 21.172 17.121 21.514 16.653L24.349 18.732ZM20.92 12.954C20.938 12.27 20.713 11.685 20.245 11.199C19.777 10.713 19.174 10.47 18.436 10.47C17.986 10.47 17.59 10.542 17.248 10.686C16.906 10.83 16.609 11.019 16.357 11.253C16.123 11.469 15.934 11.73 15.79 12.036C15.664 12.324 15.592 12.63 15.574 12.954H20.92ZM25.487 0.587999H29.537V21H25.487V0.587999ZM30.4466 7.878H34.3346V9.66H34.3886C34.5146 9.408 34.6946 9.156 34.9286 8.904C35.1626 8.652 35.4416 8.427 35.7656 8.229C36.0896 8.031 36.4586 7.869 36.8726 7.743C37.2866 7.617 37.7366 7.554 38.2226 7.554C39.1406 7.554 39.9506 7.743 40.6526 8.121C41.3726 8.499 41.9126 9.093 42.2726 9.903C42.7406 9.057 43.3076 8.454 43.9736 8.094C44.6396 7.734 45.4586 7.554 46.4306 7.554C47.3126 7.554 48.0506 7.707 48.6446 8.013C49.2566 8.301 49.7336 8.706 50.0756 9.228C50.4356 9.732 50.6876 10.335 50.8316 11.037C50.9936 11.721 51.0746 12.459 51.0746 13.251V21H47.0246V13.359C47.0246 12.747 46.8896 12.225 46.6196 11.793C46.3676 11.343 45.9086 11.118 45.2426 11.118C44.7746 11.118 44.3786 11.199 44.0546 11.361C43.7486 11.505 43.4966 11.712 43.2986 11.982C43.1186 12.252 42.9836 12.567 42.8936 12.927C42.8216 13.287 42.7856 13.665 42.7856 14.061V21H38.7356V14.061C38.7356 13.827 38.7266 13.539 38.7086 13.197C38.6906 12.855 38.6276 12.531 38.5196 12.225C38.4116 11.919 38.2316 11.658 37.9796 11.442C37.7456 11.226 37.3946 11.118 36.9266 11.118C36.4046 11.118 35.9816 11.217 35.6576 11.415C35.3336 11.595 35.0816 11.847 34.9016 12.171C34.7396 12.477 34.6316 12.828 34.5776 13.224C34.5236 13.62 34.4966 14.034 34.4966 14.466V21H30.4466V7.878ZM60.1748 19.353H60.1208C59.6708 20.055 59.0678 20.559 58.3118 20.865C57.5738 21.171 56.7908 21.324 55.9628 21.324C55.3508 21.324 54.7568 21.234 54.1808 21.054C53.6228 20.892 53.1278 20.64 52.6958 20.298C52.2638 19.956 51.9218 19.533 51.6698 19.029C51.4178 18.525 51.2918 17.94 51.2918 17.274C51.2918 16.518 51.4268 15.879 51.6968 15.357C51.9848 14.835 52.3628 14.403 52.8308 14.061C53.3168 13.719 53.8658 13.458 54.4778 13.278C55.0898 13.08 55.7198 12.936 56.3678 12.846C57.0338 12.756 57.6908 12.702 58.3388 12.684C59.0048 12.666 59.6168 12.657 60.1748 12.657C60.1748 11.937 59.9138 11.37 59.3918 10.956C58.8878 10.524 58.2848 10.308 57.5828 10.308C56.9168 10.308 56.3048 10.452 55.7468 10.74C55.2068 11.01 54.7208 11.388 54.2888 11.874L52.1288 9.66C52.8848 8.958 53.7668 8.436 54.7748 8.094C55.7828 7.734 56.8268 7.554 57.9068 7.554C59.0948 7.554 60.0668 7.707 60.8228 8.013C61.5968 8.301 62.2088 8.733 62.6588 9.309C63.1268 9.885 63.4508 10.596 63.6308 11.442C63.8108 12.27 63.9008 13.233 63.9008 14.331V21H60.1748V19.353ZM59.1758 15.249C58.8698 15.249 58.4828 15.267 58.0148 15.303C57.5648 15.321 57.1238 15.393 56.6918 15.519C56.2778 15.645 55.9178 15.834 55.6118 16.086C55.3238 16.338 55.1798 16.689 55.1798 17.139C55.1798 17.625 55.3868 17.985 55.8008 18.219C56.2148 18.453 56.6468 18.57 57.0968 18.57C57.4928 18.57 57.8708 18.516 58.2308 18.408C58.6088 18.3 58.9418 18.147 59.2298 17.949C59.5178 17.751 59.7428 17.499 59.9048 17.193C60.0848 16.887 60.1748 16.527 60.1748 16.113V15.249H59.1758Z" fill="white"/>
</svg>
