<svg width="91" height="30" viewBox="0 0 91 30" fill="none" xmlns="http://www.w3.org/2000/svg">
<path d="M5.04 4.152H9.2C10.2027 4.152 11.0027 4.45067 11.6 5.048C12.1973 5.624 12.496 6.38133 12.496 7.32C12.496 8.23733 12.1973 8.984 11.6 9.56C11.0027 10.136 10.2027 10.424 9.2 10.424H9.104V14.424H9.424C11.7067 14.424 13.552 13.72 14.96 12.312C16.304 10.9893 16.976 9.32533 16.976 7.32C16.976 5.29333 16.304 3.61867 14.96 2.296C13.552 0.887999 11.7067 0.183998 9.424 0.183998H0.592V23H5.04V4.152ZM29.6133 17.944C28.5893 18.9893 27.3413 19.512 25.8693 19.512C24.8026 19.512 23.9493 19.192 23.3093 18.552C22.6906 17.9547 22.3493 17.1547 22.2853 16.152H22.2533V15.992C22.2533 15.9707 22.2533 15.9387 22.2533 15.896C22.2533 15.8747 22.2533 15.8533 22.2533 15.832V12.984C22.2746 12.344 22.4026 11.7573 22.6373 11.224C23.1493 10.072 24.0666 9.496 25.3893 9.496C26.7119 9.496 27.6399 10.072 28.1733 11.224C28.3866 11.7573 28.5146 12.344 28.5573 12.984H24.9093V15.832H32.6213V13.976C32.6213 11.6507 31.9919 9.76267 30.7333 8.312C29.4319 6.81867 27.6506 6.072 25.3893 6.072C23.2133 6.072 21.4746 6.808 20.1733 8.28C18.8506 9.79467 18.1893 11.8747 18.1893 14.52C18.1893 20.1733 20.7386 23 25.8373 23C28.2906 23 30.3919 22.136 32.1413 20.408L29.6133 17.944ZM19.5013 18.04C19.5013 17.912 19.5013 17.8587 19.5013 17.88V18.04ZM41.544 25.688C41.1813 26.648 40.7653 27.3627 40.296 27.832C39.4427 28.6853 38.248 29.112 36.712 29.112H35.08V25.368H36.04C37.0853 25.368 37.7787 24.8667 38.12 23.864L38.824 21.816L33.128 6.328H37.512L40.968 16.632L44.296 6.328H48.68L41.544 25.688ZM55.3645 23C53.7858 23 52.5592 22.4987 51.6845 21.496C50.9165 20.6213 50.5325 19.5333 50.5325 18.232V9.976H48.7725V6.808H50.5325V1.88H54.6925V6.808H57.6365V9.976H54.6925V17.976C54.6925 18.9787 55.1725 19.48 56.1325 19.48H57.6365V23H55.3645ZM65.4248 19.096C65.1688 18.968 64.9448 18.8187 64.7528 18.648C64.1341 18.008 63.8248 16.6533 63.8248 14.584C63.8248 12.536 64.1341 11.2027 64.7528 10.584C65.2434 10.0933 65.8834 9.848 66.6728 9.848C67.4834 9.848 68.1341 10.0933 68.6248 10.584C69.2648 11.2027 69.5848 12.536 69.5848 14.584C69.5848 16.6533 69.2648 18.008 68.6248 18.648C68.4754 18.776 68.2941 18.904 68.0808 19.032V22.968C69.6168 22.712 70.8754 22.072 71.8568 21.048C73.0941 19.7467 73.7128 17.592 73.7128 14.584C73.7128 11.5973 73.0941 9.45333 71.8568 8.152C70.5768 6.78667 68.8488 6.104 66.6728 6.104C64.5394 6.104 62.8328 6.78667 61.5528 8.152C60.2941 9.45333 59.6648 11.5973 59.6648 14.584C59.6648 17.592 60.2941 19.7467 61.5528 21.048C62.5341 22.1147 63.8248 22.7653 65.4248 23V19.096ZM86.3758 23V12.92C86.3758 11.8747 86.0771 11.0853 85.4798 10.552C84.9891 10.104 84.3704 9.88 83.6238 9.88C82.8558 9.88 82.2264 10.104 81.7358 10.552C81.1384 11.0853 80.8398 11.8747 80.8398 12.92V23H76.6798V6.328H80.7438V7.864C81.8318 6.712 83.2184 6.136 84.9038 6.136C86.5464 6.136 87.8584 6.62667 88.8398 7.608C89.9704 8.73867 90.5358 10.3173 90.5358 12.344V23H86.3758Z" fill="#323232"/>
</svg>
